<?xml version="1.0" encoding="utf-8"?>
<svg width="595.276pt" height="841.89pt" viewBox="0 0 595.276 841.89" fill-rule="evenodd" id="svg3021" version="1.1" xmlns="http://www.w3.org/2000/svg">
  <defs id="defs3037">
    <path id="path-0" style="fill: none;" d="M 32.1 293.275 C 109.687 200.17 177.464 163.642 304.948 170.713 C 402.771 173.631 371.203 181.028 485.874 202.812 C 527.377 210.696 537.045 229.783 555.91 252.421 C 565.974 263.944 577.834 281.603 583.633 281.603 L 585.092 283.062 C 585.092 285.254 586.51 285.939 588.01 287.439"/>
    <path id="path-1" style="fill: none;" d="M 11.673 335.589 C 143.579 230.381 89.576 248.124 183.844 202.811 C 251.736 170.177 326.094 175.961 396.871 191.14 L 506.301 140.072 C 540.981 176.919 553.919 216.271 567.583 264.094"/>
    <path id="path-2" style="fill: none;" d="M 132.777 188.221 L 210.108 141.531 C 274.15 118.927 217.583 141.689 285.979 142.99 C 374.191 144.668 502.814 238.15 427.511 156.122"/>
    <path id="path-3" style="fill: none;" d="M 195.517 157.581 C 260.867 109.325 220.29 104.862 281.602 124.022 L 391.034 148.826 C 397.463 150.969 412.032 169.253 415.838 169.253"/>
  </defs>
  <g id="g3023" transform="translate(269.81467,-650.62904)">
    <path style="stroke: none;" d="m -126.267,1038.85 c 22.737,50.44 15.792,102.75 -15.51,116.87 -31.303,14.12 -75.11,-15.31 -97.845,-65.74 -22.737,-50.43 -15.793,-102.745 15.51,-116.863 31.303,-14.114 75.108,15.317 97.845,65.733 z" id="path3025"/>
    <path style="stroke: none;" d="m 183.155,1038.85 c -22.738,50.44 -15.793,102.75 15.512,116.87 31.303,14.12 75.106,-15.31 97.846,-65.74 22.734,-50.43 15.789,-102.745 -15.513,-116.863 -31.301,-14.114 -75.108,15.317 -97.845,65.733 z" id="path3027"/>
    <path style="stroke: none;" d="m 6.7856,937.757 c 11.6548,54.069 -6.1108,103.763 -39.6787,111.003 -33.5654,7.23 -70.2249,-30.74 -81.8779,-84.804 -11.653,-54.068 6.112,-103.764 39.6792,-110.997 33.5669,-7.236 70.2246,30.729 81.8774,84.798 z" id="path3029"/>
    <path style="stroke: none;" d="m 49.2676,937.803 c -11.6446,54.068 6.1084,103.767 39.6738,110.997 33.5676,7.24 70.2256,-30.73 81.8776,-84.797 11.654,-54.069 -6.109,-103.765 -39.678,-110.998 -33.5678,-7.234 -70.225,30.729 -81.8734,84.798 z" id="path3031"/>
    <path style="stroke: none;" d="m -35.2275,1118.5 c -8.1924,14.15 -46.1563,60.99 -72.4145,76.97 -26.256,15.98 -58.792,39.38 -53.332,93.11 5.457,53.74 60.575,76.74 96.8597,74.7 36.2867,-2.03 104.6993,-8.71 153.543,-1.94 48.8413,6.77 110.4863,1.64 124.9223,-49.81 14.436,-51.45 -17.85,-84.23 -43.044,-102.83 -25.193,-18.59 -67.265,-74.2 -80.2269,-99.73 -12.96,-25.52 -78.9268,-72.26 -126.3076,9.53 z" id="path3033"/>
  </g>
</svg>